Coordinates
version=1
nRows=4
nColumns=107
inDegrees=yes

Units are S.I. units (second, meters, Newtons, ...)
If the header above contains a line with 'inDegrees', this indicates whether rotational values are in degrees (yes) or radians (no).

endheader
time	sternoclavicular_r2	sternoclavicular_r3	unrotscap_r3	unrotscap_r2	acromioclavicular_r2	acromioclavicular_r3	acromioclavicular_r1	unrothum_r1	unrothum_r3	unrothum_r2	elv_angle	shoulder_elv	shoulder1_r2	shoulder_rot	elbow_flexion	pro_sup	deviation	flexion	proximal_distal_r1	proximal_distal_r3	cmc_flexion	cmc_abduction	mp_flexion	ip_flexion	mcp2_flexion	mcp2_abduction	pm2_flexion	md2_flexion	mcp3_flexion	mcp3_abduction	pm3_flexion	md3_flexion	mcp4_flexion	mcp4_abduction	pm4_flexion	md4_flexion	mcp5_flexion	mcp5_abduction	pm5_flexion	md5_flexion	bicpt_tx	bicpt_ty	bicpt_tz	bicpt2_tx	bicpt2_ty	bicpt2_tz	ptpt_tx	ptpt_ty	ptpt_tz	FCUpt_tx	FCUpt_ty	FCUpt_tz	EDCpt_tx	EDCpt_ty	EDCpt_tz	APLpt_tx	APLpt_ty	APLpt_tz	FPLpt_tx	FPLpt_ty	FPLpt_tz	FPLpt2_tx	FPLpt2_ty	FPLpt2_tz	PEC1pt2_tx	PEC1pt2_ty	PEC1pt2_tz	PEC1pt3_tx	PEC1pt3_ty	PEC1pt3_tz	PEC2pt2_tx	PEC2pt2_ty	PEC2pt2_tz	PEC2pt3_tx	PEC2pt3_ty	PEC2pt3_tz	PEC3pt2_tx	PEC3pt2_ty	PEC3pt2_tz	PEC3pt3_tx	PEC3pt3_ty	PEC3pt3_tz	DELT2pt2a_tx	DELT2pt2a_ty	DELT2pt2a_tz	DELT2pt2_tx	DELT2pt2_ty	DELT2pt2_tz	LAT1pt2_tx	LAT1pt2_ty	LAT1pt2_tz	LAT1pt3_tx	LAT1pt3_ty	LAT1pt3_tz	LAT2pt2_tx	LAT2pt2_ty	LAT2pt2_tz	LAT2pt3_tx	LAT2pt3_ty	LAT2pt3_tz	LAT3pt2_tx	LAT3pt2_ty	LAT3pt2_tz	LAT3pt3_tx	LAT3pt3_ty	LAT3pt3_tz
      0.53333333	     -0.32580612	      0.13799609	     -0.13799609	      0.32580612	     -0.06596911	      0.53313915	      0.23964238	     -0.23964238	     -0.53313915	      0.06596911	     98.73709286	     77.13749434	     -1.72328736	    -19.33017614	     27.69095070	     27.31362977	      0.08779543	     -0.07264876	      0.11284212	     -0.03632438	     26.28362743	      8.49674351	      5.26486316	      6.82013350	     -7.18307541	     13.98194097	      6.55394116	    -34.81854400	    -37.29734262	      7.23758443	     10.82801614	     15.83017351	    -36.69368970	     -2.68201523	     -4.24458457	     22.34985007	    -41.20526810	    -14.41585166	    -11.47799219	      4.99570165	      0.00081593	     -0.03077381	     -0.00481122	      0.01636661	     -0.01772238	     -0.00871149	      0.00553183	     -0.06620498	     -0.00225026	      0.00652783	     -0.18373612	     -0.00023576	     -0.00327763	      0.00088901	      0.00019388	      0.00006991	      0.00002796	      0.00013982	      0.00008948	      0.00026845	      0.00015101	     -0.00000235	     -0.00027330	     -0.00032796	      0.00252840	      0.00887082	      0.00617100	     -0.00827086	      0.01997006	     -0.01894156	      0.00252840	      0.00887082	      0.00617100	      0.00055710	      0.01851301	     -0.00972790	      0.00398451	      0.00493295	      0.01605633	      0.00000000	      0.00795901	      0.00000000	     -0.00724236	     -0.03346913	     -0.00656355	      0.01338673	     -0.00041145	     -0.00306922	     -0.00089994	      0.01508468	     -0.00617100	      0.00248554	      0.02176993	     -0.01799876	     -0.00604244	      0.01307053	     -0.00552819	     -0.01259913	      0.02759810	     -0.03089788	     -0.02365552	      0.01461328	     -0.00741378	     -0.01568464	      0.03188352	     -0.03861163
      0.56666667	     -0.32640664	      0.13825045	     -0.13825045	      0.32640664	     -0.06609071	      0.53412183	      0.24008409	     -0.24008409	     -0.53412183	      0.06609071	     98.67703895	     77.27967369	     -1.72223923	    -18.78162417	     27.58483074	     26.92636859	      0.08502787	     -0.07499923	      0.10947720	     -0.03749961	     26.24693830	      8.45999183	      5.50867707	      6.15820469	     -7.74473291	     13.94871389	      7.36222621	    -34.97632100	    -38.09980209	      6.91737962	     11.62248174	     16.66718289	    -36.81705187	     -2.88224009	     -4.38465136	     22.94204173	    -41.48322811	    -14.41645334	    -11.80243512	      4.98705415	      0.00081242	     -0.03076164	     -0.00480926	      0.01635447	     -0.01769355	     -0.00874584	      0.00556045	     -0.06618648	     -0.00221906	      0.00649038	     -0.18374276	     -0.00022925	     -0.00323116	      0.00087480	      0.00019396	      0.00007202	      0.00002881	      0.00014405	      0.00009219	      0.00027657	      0.00015557	     -0.00000228	     -0.00027345	     -0.00032814	      0.00253306	      0.00888717	      0.00618238	     -0.00828611	      0.02000687	     -0.01897647	      0.00253306	      0.00888717	      0.00618238	      0.00055813	      0.01854714	     -0.00974583	      0.00398983	      0.00494204	      0.01606914	      0.00000000	      0.00798859	      0.00000000	     -0.00725571	     -0.03353082	     -0.00658810	      0.01306326	     -0.00039481	     -0.00288707	     -0.00090160	      0.01511248	     -0.00618238	      0.00249012	      0.02181006	     -0.01803194	     -0.00605358	      0.01309462	     -0.00553838	     -0.01262236	      0.02764897	     -0.03095483	     -0.02369912	      0.01464022	     -0.00742744	     -0.01571355	      0.03194229	     -0.03868280
      0.60000000	     -0.32580310	      0.13799482	     -0.13799482	      0.32580310	     -0.06596850	      0.53313421	      0.23964016	     -0.23964016	     -0.53313421	      0.06596850	     98.75060491	     77.13677975	     -1.72352319	    -19.29021820	     27.62534185	     27.07806799	      0.08146858	     -0.09074429	      0.10513185	     -0.04537215	     25.79744356	      8.69060194	      5.86047984	      6.03707799	     -6.54788914	     13.94768670	      6.75916800	    -35.35744828	    -36.85842845	      6.98590455	     10.27367438	     15.72348209	    -36.34966041	     -2.49159446	     -4.68572515	     23.23099079	    -41.82033490	    -14.39683310	    -11.16217999	      5.00944835	      0.00081376	     -0.03076629	     -0.00481001	      0.01635927	     -0.01770456	     -0.00873241	      0.00554924	     -0.06619373	     -0.00223128	      0.00650504	     -0.18374016	     -0.00023182	     -0.00324936	      0.00088036	      0.00019394	      0.00008595	      0.00003438	      0.00017190	      0.00011001	      0.00033004	      0.00018565	     -0.00000139	     -0.00027521	     -0.00033025	      0.00252837	      0.00887074	      0.00617095	     -0.00827078	      0.01996987	     -0.01894138	      0.00252837	      0.00887074	      0.00617095	      0.00055710	      0.01851284	     -0.00972781	      0.00398448	      0.00493290	      0.01605627	      0.00000000	      0.00795886	      0.00000000	     -0.00724229	     -0.03346882	     -0.00656343	      0.01336330	     -0.00041024	     -0.00305579	     -0.00089993	      0.01508454	     -0.00617095	      0.00248552	      0.02176973	     -0.01799860	     -0.00604239	      0.01307041	     -0.00552814	     -0.01259902	      0.02759785	     -0.03089759	     -0.02365530	      0.01461315	     -0.00741371	     -0.01568449	      0.03188323	     -0.03861128
      0.63333333	     -0.32570008	      0.13795118	     -0.13795118	      0.32570008	     -0.06594764	      0.53296563	      0.23956438	     -0.23956438	     -0.53296563	      0.06594764	     98.78687172	     77.11238867	     -1.72415617	    -19.33716908	     27.52202734	     26.98427355	      0.07234083	     -0.11572953	      0.09389335	     -0.05786477	     26.43930418	      8.89709781	      3.41455578	      9.15948035	     -6.56412987	     13.91378268	      6.62293737	    -33.07411864	    -37.19688332	      6.84241335	     11.53257822	     14.73754349	    -36.37069107	     -2.57162588	     -3.37819821	     20.53308081	    -42.08438749	    -14.39723316	    -10.96371229	      4.99282322	      0.00081034	     -0.03075445	     -0.00480810	      0.01635631	     -0.01767649	     -0.00874072	      0.00555617	     -0.06618925	     -0.00222373	      0.00649597	     -0.18374177	     -0.00023023	     -0.00323811	      0.00087692	      0.00019395	      0.00010719	      0.00004288	      0.00021439	      0.00013721	      0.00041162	      0.00023154	     -0.00000265	     -0.00027263	     -0.00032716	      0.00252757	      0.00886793	      0.00616900	     -0.00826817	      0.01996356	     -0.01893539	      0.00252757	      0.00886793	      0.00616900	      0.00055692	      0.01850699	     -0.00972474	      0.00398356	      0.00493134	      0.01605407	      0.00000000	      0.00795379	      0.00000000	     -0.00724000	     -0.03345824	     -0.00655922	      0.01339083	     -0.00041167	     -0.00307157	     -0.00089965	      0.01507977	     -0.00616900	      0.00248473	      0.02176285	     -0.01799291	     -0.00604048	      0.01306628	     -0.00552639	     -0.01259503	      0.02758912	     -0.03088782	     -0.02364782	      0.01460853	     -0.00741136	     -0.01567953	      0.03187315	     -0.03859907
